<svg id="eHA64r7WFYf1" xmlns="http://www.w3.org/2000/svg" xmlns:xlink="http://www.w3.org/1999/xlink" viewBox="0 0 150 150" shape-rendering="geometricPrecision" text-rendering="geometricPrecision"><ellipse rx="13.780551" ry="13.780551" transform="translate(37.71731 95.438898)" fill="#d1232a" stroke-width="0"/><ellipse rx="13.780551" ry="13.780551" transform="translate(113.640705 95.438898)" fill="#d1232a" stroke-width="0"/><rect width="103.744149" height="26.23505" rx="0" ry="0" transform="matrix(1.29073 0 0 0.603568 9.376176 77.784191)" fill="#d1232a" stroke-width="0"/><ellipse rx="18.590744" ry="8.580343" transform="matrix(1.097902 0 0 0.609199 122.871046 77.784191)" fill="#d1232a" stroke-width="0"/><ellipse rx="29.641186" ry="13.780552" transform="matrix(1.131581 0 0 1 99.860154 60.623505)" fill="#d1232a" stroke-width="0"/><ellipse rx="29.641186" ry="13.780552" transform="matrix(1.131581 0 0 1 42.917579 60.623505)" fill="#d1232a" stroke-width="0"/><rect width="47.321893" height="32.24129" rx="0" ry="0" transform="matrix(2.538472 0 0 0.587884 9.376176 60.623505)" fill="#d1232a" stroke-width="0"/><rect width="47.321893" height="32.24129" rx="0" ry="0" transform="matrix(1.384622 0 0 0.587884 40.577439 46.842953)" fill="#d1232a" stroke-width="0"/></svg>
