<svg id="ePHOYlWjNqG1" xmlns="http://www.w3.org/2000/svg" xmlns:xlink="http://www.w3.org/1999/xlink" viewBox="0 0 150 150" shape-rendering="geometricPrecision" text-rendering="geometricPrecision"><ellipse rx="13.7806" ry="13.7806" transform="translate(37.717312 95.438896)" fill="#d88e39" stroke-width="0"/><ellipse rx="13.7806" ry="13.7806" transform="translate(113.640701 95.438896)" fill="#d88e39" stroke-width="0"/><rect width="103.744" height="26.2351" rx="0" ry="0" transform="matrix(1.29073 0 0 0.603568 9.376176 77.784187)" fill="#d88e39" stroke-width="0"/><ellipse rx="18.5907" ry="8.58034" transform="matrix(1.097902 0 0 0.609199 122.871048 77.784187)" fill="#d88e39" stroke-width="0"/><ellipse rx="29.6412" ry="13.7806" transform="matrix(1.131581 0 0 1 99.860153 60.623505)" fill="#d88e39" stroke-width="0"/><ellipse rx="29.6412" ry="13.7806" transform="matrix(1.131581 0 0 1 42.91758 60.623505)" fill="#d88e39" stroke-width="0"/><rect width="47.3219" height="32.2413" rx="0" ry="0" transform="matrix(2.538472 0 0 0.587884 9.376176 60.623505)" fill="#d88e39" stroke-width="0"/><rect width="47.3219" height="32.2413" rx="0" ry="0" transform="matrix(1.384622 0 0 0.587884 40.577438 46.842953)" fill="#d88e39" stroke-width="0"/></svg>
